HIERARCHY
ROOT mixamorig:Hips
{
	OFFSET 0.000000 201.639420 0.000000
	CHANNELS 6 Xposition Yposition Zposition Xrotation Yrotation Zrotation
	JOINT mixamorig:Spine
	{
		OFFSET 0.006200 19.524994 -2.481800
		CHANNELS 3 Xrotation Yrotation Zrotation
		JOINT mixamorig:Spine1
		{
			OFFSET -0.000900 22.835007 -2.825400
			CHANNELS 3 Xrotation Yrotation Zrotation
			JOINT mixamorig:Spine2
			{
				OFFSET -0.020600 26.552490 -3.193300
				CHANNELS 3 Xrotation Yrotation Zrotation
				JOINT mixamorig:Neck
				{
					OFFSET -0.060000 30.701813 1.352200
					CHANNELS 3 Xrotation Yrotation Zrotation
					JOINT mixamorig:Head
					{
						OFFSET -0.087200 22.547607 3.670900
						CHANNELS 3 Xrotation Yrotation Zrotation
						JOINT mixamorig:HeadTop_End
						{
							OFFSET -0.830600 40.355194 7.893500
							CHANNELS 3 Xrotation Yrotation Zrotation
							End Site
							{
								OFFSET 0.000000 30.592346 0.000000
							}
						}
						JOINT mixamorig:RightEye
						{
							OFFSET -6.302100 18.118591 16.197100
							CHANNELS 3 Xrotation Yrotation Zrotation
							End Site
							{
								OFFSET 0.000000 30.592346 0.000000
							}
						}
						JOINT mixamorig:LeftEye
						{
							OFFSET 6.741500 18.382690 16.401899
							CHANNELS 3 Xrotation Yrotation Zrotation
							End Site
							{
								OFFSET 0.000000 30.592346 0.000000
							}
						}
					}
				}
				JOINT mixamorig:LeftShoulder
				{
					OFFSET 11.924900 18.230499 1.425400
					CHANNELS 3 Xrotation Yrotation Zrotation
					JOINT mixamorig:LeftArm
					{
						OFFSET 25.435989 -0.697632 -5.229300
						CHANNELS 3 Xrotation Yrotation Zrotation
						JOINT mixamorig:LeftForeArm
						{
							OFFSET 54.684776 0.000000 0.000000
							CHANNELS 3 Xrotation Yrotation Zrotation
							JOINT mixamorig:LeftHand
							{
								OFFSET 55.098175 0.000000 0.000000
								CHANNELS 3 Xrotation Yrotation Zrotation
								JOINT mixamorig:LeftHandMiddle1
								{
									OFFSET 23.369751 0.000000 0.000000
									CHANNELS 3 Xrotation Yrotation Zrotation
									JOINT mixamorig:LeftHandMiddle2
									{
										OFFSET 6.378677 0.000000 0.000000
										CHANNELS 3 Xrotation Yrotation Zrotation
										JOINT mixamorig:LeftHandMiddle3
										{
											OFFSET 6.148331 0.000000 0.000000
											CHANNELS 3 Xrotation Yrotation Zrotation
											JOINT mixamorig:LeftHandMiddle4
											{
												OFFSET 6.582504 0.000000 0.000000
												CHANNELS 3 Xrotation Yrotation Zrotation
												End Site
												{
													OFFSET -1.168900 6.395691 1.028606
												}
											}
										}
									}
								}
								JOINT mixamorig:LeftHandThumb1
								{
									OFFSET 7.235672 -3.848206 5.434273
									CHANNELS 3 Xrotation Yrotation Zrotation
									JOINT mixamorig:LeftHandThumb2
									{
										OFFSET 6.568451 -3.792297 3.792300
										CHANNELS 3 Xrotation Yrotation Zrotation
										JOINT mixamorig:LeftHandThumb3
										{
											OFFSET 6.063080 -3.500519 3.500518
											CHANNELS 3 Xrotation Yrotation Zrotation
											JOINT mixamorig:LeftHandThumb4
											{
												OFFSET 4.793182 -2.767334 2.767349
												CHANNELS 3 Xrotation Yrotation Zrotation
												End Site
												{
													OFFSET 0.101639 6.054260 1.275483
												}
											}
										}
									}
								}
								JOINT mixamorig:LeftHandIndex1
								{
									OFFSET 23.101074 -0.309540 4.992809
									CHANNELS 3 Xrotation Yrotation Zrotation
									JOINT mixamorig:LeftHandIndex2
									{
										OFFSET 6.226883 0.000000 0.000000
										CHANNELS 3 Xrotation Yrotation Zrotation
										JOINT mixamorig:LeftHandIndex3
										{
											OFFSET 6.094330 0.000000 0.000000
											CHANNELS 3 Xrotation Yrotation Zrotation
											JOINT mixamorig:LeftHandIndex4
											{
												OFFSET 5.482605 0.000000 0.000000
												CHANNELS 3 Xrotation Yrotation Zrotation
												End Site
												{
													OFFSET -1.427902 5.233032 0.797164
												}
											}
										}
									}
								}
								JOINT mixamorig:LeftHandRing1
								{
									OFFSET 22.299240 0.021149 -3.964172
									CHANNELS 3 Xrotation Yrotation Zrotation
									JOINT mixamorig:LeftHandRing2
									{
										OFFSET 6.321869 0.000000 0.000000
										CHANNELS 3 Xrotation Yrotation Zrotation
										JOINT mixamorig:LeftHandRing3
										{
											OFFSET 5.899796 0.000000 0.000000
											CHANNELS 3 Xrotation Yrotation Zrotation
											JOINT mixamorig:LeftHandRing4
											{
												OFFSET 6.517899 0.000000 0.000000
												CHANNELS 3 Xrotation Yrotation Zrotation
												End Site
												{
													OFFSET -1.637299 6.232208 0.980890
												}
											}
										}
									}
								}
								JOINT mixamorig:LeftHandPinky1
								{
									OFFSET 20.463791 -0.302338 -8.562233
									CHANNELS 3 Xrotation Yrotation Zrotation
									JOINT mixamorig:LeftHandPinky2
									{
										OFFSET 6.908646 0.000000 0.000000
										CHANNELS 3 Xrotation Yrotation Zrotation
										JOINT mixamorig:LeftHandPinky3
										{
											OFFSET 4.622849 0.000000 0.000000
											CHANNELS 3 Xrotation Yrotation Zrotation
											JOINT mixamorig:LeftHandPinky4
											{
												OFFSET 5.216080 0.000000 0.000000
												CHANNELS 3 Xrotation Yrotation Zrotation
												End Site
												{
													OFFSET -0.606308 5.116241 0.814926
												}
											}
										}
									}
								}
							}
						}
					}
				}
				JOINT mixamorig:RightShoulder
				{
					OFFSET -12.001300 18.284088 1.348900
					CHANNELS 3 Xrotation Yrotation Zrotation
					JOINT mixamorig:RightArm
					{
						OFFSET -25.308500 -0.751312 -5.164599
						CHANNELS 3 Xrotation Yrotation Zrotation
						JOINT mixamorig:RightForeArm
						{
							OFFSET -54.684429 0.000000 0.000000
							CHANNELS 3 Xrotation Yrotation Zrotation
							JOINT mixamorig:RightHand
							{
								OFFSET -55.150291 0.000000 0.000000
								CHANNELS 3 Xrotation Yrotation Zrotation
								JOINT mixamorig:RightHandMiddle1
								{
									OFFSET -23.317566 0.000000 0.000000
									CHANNELS 3 Xrotation Yrotation Zrotation
									JOINT mixamorig:RightHandMiddle2
									{
										OFFSET -6.378403 0.000000 0.000000
										CHANNELS 3 Xrotation Yrotation Zrotation
										JOINT mixamorig:RightHandMiddle3
										{
											OFFSET -6.148193 0.000000 0.000000
											CHANNELS 3 Xrotation Yrotation Zrotation
											JOINT mixamorig:RightHandMiddle4
											{
												OFFSET -6.583389 0.000000 0.000000
												CHANNELS 3 Xrotation Yrotation Zrotation
												End Site
												{
													OFFSET 1.171692 6.395905 1.029786
												}
											}
										}
									}
								}
								JOINT mixamorig:RightHandThumb1
								{
									OFFSET -7.190521 -3.860474 5.435846
									CHANNELS 3 Xrotation Yrotation Zrotation
									JOINT mixamorig:RightHandThumb2
									{
										OFFSET -6.567429 -3.791718 3.791708
										CHANNELS 3 Xrotation Yrotation Zrotation
										JOINT mixamorig:RightHandThumb3
										{
											OFFSET -6.062469 -3.500153 3.500166
											CHANNELS 3 Xrotation Yrotation Zrotation
											JOINT mixamorig:RightHandThumb4
											{
												OFFSET -4.792618 -2.767029 2.767022
												CHANNELS 3 Xrotation Yrotation Zrotation
												End Site
												{
													OFFSET -0.100327 6.053253 1.276754
												}
											}
										}
									}
								}
								JOINT mixamorig:RightHandIndex1
								{
									OFFSET -23.048981 -0.310791 4.992554
									CHANNELS 3 Xrotation Yrotation Zrotation
									JOINT mixamorig:RightHandIndex2
									{
										OFFSET -6.227539 0.000000 0.000000
										CHANNELS 3 Xrotation Yrotation Zrotation
										JOINT mixamorig:RightHandIndex3
										{
											OFFSET -6.095047 0.000000 0.000000
											CHANNELS 3 Xrotation Yrotation Zrotation
											JOINT mixamorig:RightHandIndex4
											{
												OFFSET -5.484772 0.000000 0.000000
												CHANNELS 3 Xrotation Yrotation Zrotation
												End Site
												{
													OFFSET 1.420593 5.237305 0.797056
												}
											}
										}
									}
								}
								JOINT mixamorig:RightHandRing1
								{
									OFFSET -22.246323 0.020569 -3.963762
									CHANNELS 3 Xrotation Yrotation Zrotation
									JOINT mixamorig:RightHandRing2
									{
										OFFSET -6.322128 0.000000 0.000000
										CHANNELS 3 Xrotation Yrotation Zrotation
										JOINT mixamorig:RightHandRing3
										{
											OFFSET -5.900024 0.000000 0.000000
											CHANNELS 3 Xrotation Yrotation Zrotation
											JOINT mixamorig:RightHandRing4
											{
												OFFSET -6.518356 0.000000 0.000000
												CHANNELS 3 Xrotation Yrotation Zrotation
												End Site
												{
													OFFSET 1.636398 6.232697 0.982186
												}
											}
										}
									}
								}
								JOINT mixamorig:RightHandPinky1
								{
									OFFSET -20.411011 -0.303314 -8.561701
									CHANNELS 3 Xrotation Yrotation Zrotation
									JOINT mixamorig:RightHandPinky2
									{
										OFFSET -6.907349 0.000000 0.000000
										CHANNELS 3 Xrotation Yrotation Zrotation
										JOINT mixamorig:RightHandPinky3
										{
											OFFSET -4.623840 0.000000 0.000000
											CHANNELS 3 Xrotation Yrotation Zrotation
											JOINT mixamorig:RightHandPinky4
											{
												OFFSET -5.218353 0.000000 0.000000
												CHANNELS 3 Xrotation Yrotation Zrotation
												End Site
												{
													OFFSET 0.602097 5.118835 0.816273
												}
											}
										}
									}
								}
							}
						}
					}
				}
			}
		}
	}
	JOINT mixamorig:LeftUpLeg
	{
		OFFSET 18.168400 -13.561905 -0.039000
		CHANNELS 3 Xrotation Yrotation Zrotation
		JOINT mixamorig:LeftLeg
		{
			OFFSET 0.577358 -80.825211 -3.695000
			CHANNELS 3 Xrotation Yrotation Zrotation
			JOINT mixamorig:LeftFoot
			{
				OFFSET -0.577356 -83.370262 -6.520700
				CHANNELS 3 Xrotation Yrotation Zrotation
				JOINT mixamorig:LeftToeBase
				{
					OFFSET 0.750401 -20.798306 25.135401
					CHANNELS 3 Xrotation Yrotation Zrotation
					JOINT mixamorig:LeftToe_End
					{
						OFFSET -0.000500 0.001200 19.917799
						CHANNELS 3 Xrotation Yrotation Zrotation
						End Site
						{
							OFFSET 0.000000 19.917805 0.000000
						}
					}
				}
			}
		}
	}
	JOINT mixamorig:RightUpLeg
	{
		OFFSET -18.162500 -13.585098 -0.041000
		CHANNELS 3 Xrotation Yrotation Zrotation
		JOINT mixamorig:RightLeg
		{
			OFFSET -0.595024 -80.945297 -3.631900
			CHANNELS 3 Xrotation Yrotation Zrotation
			JOINT mixamorig:RightFoot
			{
				OFFSET 0.595024 -83.218193 -6.561200
				CHANNELS 3 Xrotation Yrotation Zrotation
				JOINT mixamorig:RightToeBase
				{
					OFFSET -0.753601 -20.807106 25.115000
					CHANNELS 3 Xrotation Yrotation Zrotation
					JOINT mixamorig:RightToe_End
					{
						OFFSET 0.000299 0.001700 19.918200
						CHANNELS 3 Xrotation Yrotation Zrotation
						End Site
						{
							OFFSET 0.000000 19.918203 0.000000
						}
					}
				}
			}
		}
	}
}
MOTION
Frames: 5
Frame Time: 0.033333
0.162822 188.113632 -0.461250 -6.152263 -43.673869 -4.125926 5.832591 4.560474 -1.228251 11.836648 9.041545 -3.085907 11.836654 9.041547 -3.085908 -4.303038 -1.272930 0.206306 -6.271934 20.437792 -0.377162 -0.000001 0.000000 0.000000 -0.000001 0.000000 0.000000 -0.000001 0.000000 0.000000 1.392490 -0.696041 -7.877850 -14.245632 2.405795 -63.273220 9.855930 -47.530969 5.920209 16.161032 0.912589 18.805087 1.944509 9.683850 -14.539770 -0.455774 -1.563820 -21.881208 0.000003 -0.000014 -0.000003 0.000004 -0.000003 0.000002 9.163599 4.814100 -5.499022 -0.341045 0.034988 0.784099 0.000002 -0.000010 -0.000021 -0.000002 -0.000003 0.000001 -0.902013 -6.980961 -3.808417 0.032621 0.808477 -16.419406 -0.000000 0.000000 -0.000006 -0.000000 -0.000001 -0.000001 2.605880 14.896815 -31.345248 -0.571083 -2.703163 -32.011946 -0.000006 0.000003 -0.000000 -0.000003 -0.000001 0.000001 4.170581 18.495013 -34.987313 -0.700947 -5.781523 -39.372530 -0.000007 0.000004 -0.000005 -0.000001 -0.000000 0.000002 1.410948 9.461505 9.792740 1.210365 -24.266532 60.525967 -6.652864 41.873339 8.040255 6.235052 12.307098 11.678917 -0.663648 -2.903896 12.731581 -0.660558 1.813452 30.578999 0.000005 0.000005 -0.000015 0.000000 0.000000 -0.000000 -8.895851 -4.903142 -0.383717 7.904835 -19.192475 -2.856835 0.000002 0.000004 0.000006 0.000001 -0.000000 -0.000002 -1.085507 -1.215494 4.525247 0.142133 -1.115543 16.942605 -0.000004 0.000000 0.000012 -0.000000 -0.000000 -0.000001 2.423614 -7.404565 21.763267 -0.989695 3.764314 37.431148 0.000004 -0.000000 0.000002 -0.000001 -0.000000 0.000001 3.481039 -10.055064 24.322736 -1.458316 7.872021 41.091958 0.000009 0.000002 -0.000014 0.000000 -0.000001 0.000000 -28.717349 5.478954 13.780883 35.016023 -14.076088 -0.184009 -3.699351 0.649198 -7.937941 -2.319080 -3.216997 0.802953 0.000000 0.000000 0.000000 -7.183657 -13.136941 -15.783659 34.238980 -9.302742 -0.414343 -19.369377 -3.705641 16.561588 -1.785529 -0.322111 0.356358 -0.000000 0.000002 0.000000 
0.631422 187.124023 0.466973 -4.184644 -45.460800 -2.409006 5.596729 4.496066 -1.325168 11.363041 8.897536 -3.222583 11.363046 8.897542 -3.222581 -5.606698 -0.981332 0.125032 -5.337275 19.977883 -0.528854 0.000001 -0.000000 -0.000000 0.000001 -0.000000 -0.000000 0.000001 -0.000000 -0.000000 1.335038 -0.481413 -9.015227 -14.187122 2.189915 -61.099075 10.514351 -49.059429 5.290733 15.261636 1.611730 20.521512 1.928789 9.651095 -12.024814 -0.355914 -1.301368 -19.307358 -0.000003 -0.000011 -0.000009 -0.000001 0.000001 -0.000001 7.656061 2.857727 -5.309889 -0.338527 0.050485 0.797878 0.000004 -0.000011 -0.000015 0.000002 0.000002 -0.000003 -0.833155 -6.668968 -2.475519 0.077316 0.953122 -15.171047 -0.000000 0.000002 -0.000011 -0.000001 -0.000000 -0.000001 2.557485 14.850756 -28.399583 -0.483674 -2.556587 -29.205387 -0.000003 0.000001 0.000002 0.000003 0.000000 -0.000002 4.061571 18.505356 -31.719982 -0.663639 -5.735678 -36.624697 0.000000 0.000002 -0.000006 -0.000002 -0.000001 0.000000 1.333864 9.294510 10.186544 0.787763 -23.646275 57.640048 -4.804213 43.062242 8.069825 5.911404 11.421997 11.674464 -0.608136 -2.973989 12.427483 -0.527795 1.663860 29.722794 0.000005 0.000000 -0.000015 0.000000 -0.000000 -0.000001 -9.546127 -3.422513 -1.037718 7.201801 -17.653274 -2.967580 0.000003 0.000004 0.000006 0.000000 -0.000000 0.000003 -1.248073 -1.771638 4.344195 0.224133 -1.246328 16.654312 -0.000002 -0.000001 0.000015 -0.000001 -0.000001 -0.000002 1.691167 -8.581339 20.995395 -0.838805 3.628857 36.505138 0.000001 0.000002 0.000002 0.000001 -0.000000 0.000002 3.958411 -11.412443 24.239885 -1.309563 7.762017 40.287372 0.000003 0.000001 -0.000010 0.000000 -0.000000 -0.000001 -30.756574 4.495953 12.633315 37.696429 -10.350227 0.658016 -5.318631 0.855993 -8.445709 -2.192873 -3.986462 1.026122 -0.000000 -0.000002 -0.000000 -10.416763 -12.068068 -16.887347 36.489432 -8.056798 -0.700255 -20.188280 -3.778879 16.842215 -1.817271 -0.319386 0.357354 -0.000000 0.000001 0.000000 
1.601966 185.906021 1.824395 -1.616463 -47.867250 -0.087513 5.380094 4.499838 -1.445812 10.932490 8.885479 -3.409121 10.932490 8.885487 -3.409118 -8.283150 -0.436735 -0.324670 -3.641730 19.395338 -0.562098 0.000000 0.000000 -0.000000 0.000000 0.000000 -0.000000 0.000000 0.000000 -0.000000 1.167507 -0.790915 -10.554247 -14.161250 0.900746 -58.685300 11.121402 -49.815964 2.951779 13.183532 2.876179 24.428435 1.903896 9.644645 -9.257796 -0.264437 -1.020894 -16.603821 0.000001 -0.000011 -0.000005 0.000007 -0.000003 0.000004 6.123539 0.789551 -5.220934 -0.349756 0.038009 0.809769 0.000002 -0.000011 -0.000010 -0.000001 0.000001 0.000002 -0.709485 -6.364756 -0.947828 0.120272 1.106779 -13.855490 -0.000001 0.000006 -0.000011 0.000000 -0.000003 0.000003 2.510090 14.824275 -25.173760 -0.399973 -2.398831 -26.269054 0.000002 0.000006 -0.000001 -0.000000 -0.000001 -0.000002 3.950003 18.534686 -28.145968 -0.627353 -5.685479 -33.746578 -0.000007 0.000003 -0.000007 0.000005 -0.000000 -0.000001 1.283362 9.238420 10.270516 -0.000695 -22.610416 54.485737 -3.093854 44.126328 8.084237 5.687556 10.590157 11.602574 -0.553723 -3.053764 12.010883 -0.398696 1.510392 28.849698 0.000007 0.000003 -0.000013 0.000001 -0.000001 0.000003 -10.219261 -1.909354 -1.761044 6.516490 -16.140302 -3.054275 0.000004 0.000004 0.000007 0.000000 -0.000000 0.000003 -1.448239 -2.357990 4.064769 0.306192 -1.382223 16.311742 -0.000002 -0.000000 0.000015 0.000002 -0.000001 -0.000001 0.952303 -9.704101 20.043637 -0.695154 3.495518 35.648755 0.000003 0.000002 0.000001 -0.000001 0.000002 -0.000001 4.470435 -12.730386 24.041238 -1.165205 7.651017 39.508809 0.000005 0.000000 -0.000010 0.000000 0.000000 0.000001 -33.292647 3.519608 11.228208 40.817576 -5.398123 1.454005 -7.107604 1.125356 -9.243996 -2.023945 -5.324933 1.486843 0.000000 0.000001 -0.000000 -14.312996 -10.460999 -17.996719 38.869828 -6.575406 -1.471699 -20.835535 -3.933498 17.471286 -1.784684 -0.315971 0.360613 -0.000000 0.000000 0.000000 
3.166429 184.415588 3.610668 1.842442 -50.915754 2.917648 5.205022 4.508169 -1.528835 10.583575 8.884381 -3.530917 10.583576 8.884395 -3.530918 -12.461515 0.294252 -0.859359 -1.379405 18.791360 -0.445594 0.000000 0.000000 -0.000000 0.000000 0.000000 -0.000000 0.000000 0.000000 -0.000000 0.833516 -1.833678 -12.734717 -14.593406 -2.668836 -56.251478 12.057784 -49.191190 -0.866135 10.281686 4.044632 29.079397 1.861419 9.611737 -6.820027 -0.194162 -0.765382 -14.175924 -0.000003 -0.000009 -0.000011 -0.000000 0.000000 -0.000000 4.717750 -1.124555 -5.184634 -0.356764 0.035686 0.824683 0.000000 -0.000009 -0.000014 0.000001 0.000000 0.000001 -0.519881 -6.116944 0.348577 0.154525 1.240071 -12.721782 -0.000001 0.000001 -0.000003 -0.000003 -0.000000 -0.000001 2.442706 14.776513 -22.320551 -0.330275 -2.252689 -23.609949 -0.000001 -0.000000 0.000004 -0.000001 -0.000001 -0.000000 3.796480 18.564943 -24.964820 -0.596788 -5.638552 -31.145949 -0.000008 0.000003 -0.000007 -0.000003 0.000001 0.000001 1.251927 9.378271 9.981463 -1.206669 -21.070818 50.985860 -1.753797 45.184614 8.073882 5.564074 10.365006 11.377937 -0.525875 -3.064455 12.230836 -0.319826 1.423077 28.649396 0.000007 0.000005 -0.000008 0.000000 0.000001 -0.000001 -10.430517 -0.890999 -1.715688 5.929286 -14.837099 -3.105333 0.000004 0.000004 0.000006 0.000001 -0.000000 0.000001 -1.254581 -2.038289 4.506043 0.355024 -1.438551 16.595111 -0.000003 0.000001 0.000015 -0.000000 0.000000 -0.000002 0.036186 -11.005789 19.906064 -0.612324 3.428600 35.569265 -0.000002 0.000000 -0.000003 0.000000 0.000001 0.000000 4.279382 -14.381243 24.619632 -1.079021 7.593206 39.460356 0.000006 0.000001 -0.000009 -0.000001 -0.000001 -0.000003 -36.418087 2.561993 10.061285 44.206863 -0.356434 2.062391 -8.552773 1.458233 -10.737459 -1.937795 -6.286994 1.640794 -0.000000 -0.000002 -0.000000 -18.844388 -8.248662 -18.709290 41.289542 -4.975150 -2.715305 -21.223846 -4.134801 18.376651 -1.773344 -0.326266 0.353485 0.000000 0.000001 0.000000 
5.263167 182.496231 5.814739 6.450101 -54.489231 6.583777 5.026000 4.405541 -1.504628 10.216642 8.669373 -3.457262 10.216649 8.669370 -3.457265 -17.149290 0.929447 -0.720399 0.975840 18.483453 -0.457643 0.000000 0.000001 -0.000001 0.000000 0.000001 -0.000001 0.000000 0.000001 -0.000001 0.277770 -3.689828 -14.924359 -15.886117 -8.789553 -54.658333 14.087305 -47.387545 -4.241425 8.297963 4.574207 31.692897 1.797776 9.462594 -5.606856 -0.154499 -0.597772 -12.599232 -0.000003 -0.000012 -0.000007 -0.000004 -0.000001 0.000000 3.643796 -2.514132 -5.101842 -0.363327 0.037664 0.840033 0.000005 -0.000010 -0.000010 0.000001 -0.000000 0.000001 -0.260616 -5.990753 0.739054 0.172781 1.310699 -12.122268 -0.000000 0.000005 -0.000013 -0.000001 -0.000002 0.000004 2.335727 14.641921 -20.862415 -0.285738 -2.152044 -21.806007 -0.000000 0.000002 0.000001 0.000001 -0.000001 -0.000000 3.616235 18.513602 -23.308659 -0.577462 -5.606262 -29.401891 -0.000007 0.000002 -0.000005 -0.000001 0.000001 0.000001 1.257730 9.518942 9.437921 -2.787896 -18.887351 47.131522 -0.737251 46.213019 7.976291 5.594768 11.313776 11.031083 -0.548619 -2.915007 13.977933 -0.337274 1.478994 29.878492 0.000006 -0.000001 -0.000017 0.000001 -0.000002 -0.000001 -9.639262 -0.922272 0.026738 5.483900 -13.847820 -3.120833 0.000004 0.000004 0.000007 0.000002 0.000000 -0.000001 -0.276635 0.220419 6.575505 0.335894 -1.323460 18.258882 -0.000004 -0.000000 0.000015 -0.000000 0.000000 -0.000001 -1.156975 -12.816552 21.721781 -0.644438 3.497181 37.023594 0.000003 0.000001 -0.000001 0.000000 0.000002 -0.000000 2.746320 -16.854233 26.960613 -1.105640 7.647766 40.904982 0.000004 0.000001 -0.000010 -0.000001 0.000001 0.000001 -40.414506 1.489461 9.424114 48.527456 3.581261 2.640340 -9.992632 1.701757 -11.486926 -2.521179 -5.333049 0.944660 -0.000000 0.000002 -0.000000 -23.937462 -5.582403 -18.677656 43.837182 -3.205760 -4.153026 -21.312955 -4.340810 19.398055 -1.924945 -0.345135 0.338971 -0.000000 0.000001 -0.000000 
